<?xml version="1.0" standalone="no"?>
<!DOCTYPE svg PUBLIC "-//W3C//DTD SVG 20010904//EN"
 "http://www.w3.org/TR/2001/REC-SVG-20010904/DTD/svg10.dtd">
<svg version="1.0" xmlns="http://www.w3.org/2000/svg"
 width="519.000000pt" height="519.000000pt" viewBox="0 0 519.000000 519.000000"
 preserveAspectRatio="xMidYMid meet">
<metadata>
Created by potrace 1.14, written by Peter Selinger 2001-2017
</metadata>
<g transform="translate(0.000000,519.000000) scale(0.100000,-0.100000)"
fill="#000000" stroke="none">
<path d="M23 4872 c-19 -3 -9 -20 88 -145 145 -188 194 -252 257 -334 28 -37
152 -198 275 -358 l223 -290 861 -5 862 -5 -72 -95 c-62 -81 -512 -677 -567
-750 -10 -14 -63 -83 -117 -155 -54 -71 -217 -287 -363 -480 -621 -824 -785
-1041 -797 -1055 -41 -50 -663 -880 -663 -885 0 -3 378 -5 839 -5 l839 0 188
246 c104 135 292 379 417 542 125 164 238 310 250 326 57 76 37 89 200 -126
81 -106 153 -200 160 -208 7 -8 57 -73 112 -145 55 -71 104 -135 110 -142 5
-6 93 -120 194 -252 l184 -241 838 0 c462 0 839 2 839 5 0 3 -104 144 -232
313 -127 169 -322 426 -432 572 -110 146 -268 355 -351 465 -83 110 -227 301
-320 425 -93 124 -172 227 -175 230 -3 3 -17 21 -30 40 -14 19 -30 42 -37 50
-7 8 -44 57 -82 109 l-70 93 30 37 c16 20 102 131 190 246 89 116 170 221 180
235 72 93 379 493 399 520 56 73 245 320 578 754 194 252 351 460 349 463 -3
3 -844 5 -1587 3 l-145 0 -130 -171 c-71 -93 -137 -180 -145 -192 -22 -32
-254 -341 -261 -347 -3 -3 -64 -84 -137 -180 -72 -96 -142 -188 -155 -203
l-23 -29 -404 538 c-223 295 -414 548 -425 561 l-20 24 -850 2 c-468 1 -860 1
-872 -1z"/>
</g>
</svg>
